<svg width="40" height="40" viewBox="0 0 40 40" fill="none" xmlns="http://www.w3.org/2000/svg">
<path d="M30.0004 30C30.6635 30 31.2994 29.7366 31.7682 29.2678C32.237 28.7989 32.5004 28.163 32.5004 27.5V21.395C32.5004 20.732 32.237 20.0961 31.7682 19.6272C31.2994 19.1584 30.6635 18.895 30.0004 18.895H26.5304C26.5304 18.0175 26.5829 17.1375 26.6854 16.26C26.8404 15.33 27.1004 14.5025 27.4604 13.78C27.8229 13.055 28.2879 12.4875 28.8579 12.0725C29.4254 11.6075 30.1479 11.375 31.0279 11.375V7.5C29.5804 7.5 28.3154 7.81 27.2279 8.43C26.1499 9.04371 25.223 9.89113 24.5154 10.91C23.8052 12.0333 23.2818 13.2642 22.9654 14.555C22.6466 15.9794 22.4906 17.4354 22.5004 18.895V27.5C22.5004 28.163 22.7638 28.7989 23.2327 29.2678C23.7015 29.7366 24.3374 30 25.0004 30H30.0004ZM15.0004 30C15.6635 30 16.2994 29.7366 16.7682 29.2678C17.237 28.7989 17.5004 28.163 17.5004 27.5V21.395C17.5004 20.732 17.237 20.0961 16.7682 19.6272C16.2994 19.1584 15.6635 18.895 15.0004 18.895H11.5304C11.5304 18.0175 11.5829 17.1375 11.6854 16.26C11.8404 15.33 12.1004 14.5025 12.4604 13.78C12.8229 13.055 13.2879 12.4875 13.8579 12.0725C14.4254 11.6075 15.1479 11.375 16.0279 11.375V7.5C14.5804 7.5 13.3154 7.81 12.2279 8.43C11.1499 9.04371 10.223 9.89113 9.51543 10.91C8.80525 12.0333 8.28179 13.2642 7.96543 14.555C7.64665 15.9794 7.49065 17.4354 7.50043 18.895V27.5C7.50043 28.163 7.76383 28.7989 8.23267 29.2678C8.70151 29.7366 9.33739 30 10.0004 30H15.0004Z" fill="#07830B"/>
</svg>
