<svg width="64" height="64" viewBox="0 0 64 64" fill="none" xmlns="http://www.w3.org/2000/svg">
<circle cx="32" cy="32" r="32" fill="#E1E4FF"/>
<path d="M18.9053 21.4646C18.9053 21.0468 19.0713 20.6461 19.3667 20.3507C19.6621 20.0552 20.0628 19.8893 20.4807 19.8893H28.3576C28.7754 19.8893 29.1761 20.0552 29.4715 20.3507C29.767 20.6461 29.933 21.0468 29.933 21.4646V24.6154C29.933 25.0332 29.767 25.4339 29.4715 25.7294C29.1761 26.0248 28.7754 26.1908 28.3576 26.1908H20.4807C20.0628 26.1908 19.6621 26.0248 19.3667 25.7294C19.0713 25.4339 18.9053 25.0332 18.9053 24.6154V21.4646ZM28.3576 21.4646H20.4807V24.6154H28.3576V21.4646ZM18.9053 30.9169C18.9053 30.4991 19.0713 30.0984 19.3667 29.803C19.6621 29.5075 20.0628 29.3416 20.4807 29.3416H28.3576C28.7754 29.3416 29.1761 29.5075 29.4715 29.803C29.767 30.0984 29.933 30.4991 29.933 30.9169V34.0677C29.933 34.4855 29.767 34.8862 29.4715 35.1817C29.1761 35.4771 28.7754 35.6431 28.3576 35.6431H20.4807C20.0628 35.6431 19.6621 35.4771 19.3667 35.1817C19.0713 34.8862 18.9053 34.4855 18.9053 34.0677V30.9169ZM28.3576 30.9169H20.4807V34.0677H28.3576V30.9169ZM20.4807 38.7939C20.0628 38.7939 19.6621 38.9598 19.3667 39.2553C19.0713 39.5507 18.9053 39.9514 18.9053 40.3693V43.52C18.9053 43.9378 19.0713 44.3385 19.3667 44.634C19.6621 44.9294 20.0628 45.0954 20.4807 45.0954H28.3576C28.7754 45.0954 29.1761 44.9294 29.4715 44.634C29.767 44.3385 29.933 43.9378 29.933 43.52V40.3693C29.933 39.9514 29.767 39.5507 29.4715 39.2553C29.1761 38.9598 28.7754 38.7939 28.3576 38.7939H20.4807ZM20.4807 40.3693H28.3576V43.52H20.4807V40.3693ZM33.0837 21.4646C33.0837 21.0468 33.2497 20.6461 33.5452 20.3507C33.8406 20.0552 34.2413 19.8893 34.6591 19.8893H42.536C42.9539 19.8893 43.3546 20.0552 43.65 20.3507C43.9455 20.6461 44.1114 21.0468 44.1114 21.4646V24.6154C44.1114 25.0332 43.9455 25.4339 43.65 25.7294C43.3546 26.0248 42.9539 26.1908 42.536 26.1908H34.6591C34.2413 26.1908 33.8406 26.0248 33.5452 25.7294C33.2497 25.4339 33.0837 25.0332 33.0837 24.6154V21.4646ZM42.536 21.4646H34.6591V24.6154H42.536V21.4646ZM34.6591 29.3416C34.2413 29.3416 33.8406 29.5075 33.5452 29.803C33.2497 30.0984 33.0837 30.4991 33.0837 30.9169V34.0677C33.0837 34.4855 33.2497 34.8862 33.5452 35.1817C33.8406 35.4771 34.2413 35.6431 34.6591 35.6431H42.536C42.9539 35.6431 43.3546 35.4771 43.65 35.1817C43.9455 34.8862 44.1114 34.4855 44.1114 34.0677V30.9169C44.1114 30.4991 43.9455 30.0984 43.65 29.803C43.3546 29.5075 42.9539 29.3416 42.536 29.3416H34.6591ZM34.6591 30.9169H42.536V34.0677H34.6591V30.9169Z" fill="#596AFF"/>
</svg>
