<svg width="64" height="64" viewBox="0 0 64 64" fill="none" xmlns="http://www.w3.org/2000/svg">
<circle cx="32" cy="32" r="32" fill="#DEF3FF"/>
<g clip-path="url(#clip0_103_843)">
<path d="M43.2766 49.723C42.8238 49.7244 42.3753 49.6358 41.957 49.4626C41.5387 49.2894 41.1589 49.0349 40.8396 48.7138L36.7751 44.6493C35.6217 44.904 34.4204 44.8343 33.3042 44.448C32.1879 44.0617 31.2005 43.3738 30.4513 42.4607C29.7021 41.5475 29.2204 40.4447 29.0596 39.2745C28.8987 38.1044 29.0651 36.9125 29.5402 35.8311L30.1191 34.5117L34.2112 38.6038C34.3986 38.7827 34.6477 38.8826 34.9068 38.8826C35.1659 38.8826 35.4151 38.7827 35.6025 38.6038C35.694 38.5125 35.7667 38.404 35.8163 38.2846C35.866 38.1652 35.8916 38.0372 35.8916 37.9079C35.8917 37.7785 35.8663 37.6505 35.8169 37.531C35.7674 37.4115 35.6949 37.303 35.6034 37.2115L31.5114 33.1185L32.8308 32.5395C33.9123 32.0647 35.1041 31.8986 36.2742 32.0597C37.4444 32.2207 38.5471 32.7025 39.4601 33.4517C40.3732 34.201 41.061 35.1884 41.4474 36.3046C41.8337 37.4207 41.9035 38.6221 41.649 39.7755L45.7135 43.84C46.1955 44.3219 46.5237 44.936 46.6567 45.6045C46.7897 46.273 46.7215 46.966 46.4606 47.5957C46.1998 48.2254 45.758 48.7637 45.1913 49.1423C44.6245 49.521 43.9582 49.7231 43.2766 49.723ZM37.3393 42.428L42.2329 47.3216C42.514 47.59 42.8878 47.7398 43.2766 47.7398C43.6653 47.7398 44.0391 47.59 44.3202 47.3216C44.4576 47.1846 44.5665 47.0218 44.6409 46.8426C44.7152 46.6634 44.7535 46.4714 44.7535 46.2774C44.7535 46.0834 44.7152 45.8913 44.6409 45.7121C44.5665 45.533 44.4576 45.3702 44.3202 45.2332L39.4277 40.3397L39.6128 39.7656C39.8291 39.1009 39.8848 38.3944 39.7756 37.7039C39.6663 37.0135 39.395 36.3587 38.984 35.7933C38.573 35.2278 38.0339 34.7677 37.4109 34.4507C36.7879 34.1336 36.0987 33.9686 35.3996 33.9692C35.3169 33.9692 35.2349 33.9715 35.1535 33.9761L36.9967 35.8193C37.5504 36.3732 37.8615 37.1244 37.8615 37.9077C37.8615 38.6909 37.5504 39.4421 36.9967 39.996C36.434 40.5333 35.6858 40.8331 34.9078 40.8331C34.1298 40.8331 33.3817 40.5333 32.819 39.996L30.9758 38.1528C30.9712 38.2349 30.9689 38.3173 30.9689 38.4C30.9683 39.0991 31.1333 39.7885 31.4504 40.4116C31.7675 41.0347 32.2277 41.5739 32.7932 41.985C33.3588 42.3961 34.0136 42.6674 34.7042 42.7768C35.3948 42.8861 36.1014 42.8304 36.7663 42.6141L37.3393 42.428Z" fill="#46BCFF"/>
<path d="M40.3691 21.6615H37.4152V20.6769C37.4137 20.1551 37.2057 19.6552 36.8367 19.2862C36.4678 18.9172 35.9678 18.7093 35.446 18.7077H27.5691C27.0473 18.7093 26.5473 18.9172 26.1783 19.2862C25.8094 19.6552 25.6014 20.1551 25.5998 20.6769V21.6615H22.646C22.1242 21.6631 21.6242 21.8711 21.2553 22.24C20.8863 22.609 20.6783 23.109 20.6768 23.6308V44.3077C20.6783 44.8295 20.8863 45.3295 21.2553 45.6984C21.6242 46.0674 22.1242 46.2754 22.646 46.2769H29.5383V44.3077H22.646V23.6308H25.5998V26.5846H37.4152V23.6308H40.3691V28.5539H42.3383V23.6308C42.3367 23.109 42.1288 22.609 41.7598 22.24C41.3908 21.8711 40.8909 21.6631 40.3691 21.6615ZM35.446 24.6154H27.5691V20.6769H35.446V24.6154Z" fill="#46BCFF"/>
</g>
<defs>
<clipPath id="clip0_103_843">
<rect width="31.5077" height="31.5077" fill="white" transform="translate(15.7539 16.7385)"/>
</clipPath>
</defs>
</svg>
