<svg width="64" height="64" viewBox="0 0 64 64" fill="none" xmlns="http://www.w3.org/2000/svg">
<circle cx="32" cy="32" r="32" fill="#FFF7F3"/>
<g clip-path="url(#clip0_103_852)">
<path fill-rule="evenodd" clip-rule="evenodd" d="M15.7529 20.1846C15.7529 18.2823 17.2968 16.7384 19.1991 16.7384H26.0914C27.9937 16.7384 29.5375 18.2823 29.5375 20.1846V27.0769C29.5375 27.9908 29.1745 28.8674 28.5282 29.5137C27.8819 30.1599 27.0054 30.523 26.0914 30.523H23.6299V38.3999C23.6299 38.9222 23.8373 39.4231 24.2066 39.7924C24.5759 40.1617 25.0768 40.3692 25.5991 40.3692H33.476V37.9076C33.476 36.0054 35.0199 34.4615 36.9222 34.4615H43.8145C45.7167 34.4615 47.2606 36.0054 47.2606 37.9076V44.7999C47.2606 45.7139 46.8975 46.5905 46.2513 47.2367C45.605 47.883 44.7284 48.2461 43.8145 48.2461H36.9222C36.0082 48.2461 35.1316 47.883 34.4854 47.2367C33.8391 46.5905 33.476 45.7139 33.476 44.7999V43.323H25.5991C24.2934 43.323 23.0412 42.8043 22.1179 41.8811C21.1947 40.9578 20.676 39.7056 20.676 38.3999V30.523H19.1991C18.2851 30.523 17.4086 30.1599 16.7623 29.5137C16.116 28.8674 15.7529 27.9908 15.7529 27.0769V20.1846ZM19.1991 19.6922C19.0685 19.6922 18.9433 19.7441 18.851 19.8364C18.7586 19.9288 18.7068 20.054 18.7068 20.1846V27.0769C18.7068 27.3486 18.9273 27.5692 19.1991 27.5692H26.0914C26.222 27.5692 26.3472 27.5173 26.4395 27.425C26.5318 27.3327 26.5837 27.2074 26.5837 27.0769V20.1846C26.5837 20.054 26.5318 19.9288 26.4395 19.8364C26.3472 19.7441 26.222 19.6922 26.0914 19.6922H19.1991ZM36.9222 37.4153C36.7916 37.4153 36.6664 37.4672 36.574 37.5595C36.4817 37.6518 36.4299 37.7771 36.4299 37.9076V44.7999C36.4299 45.0717 36.6504 45.2922 36.9222 45.2922H43.8145C43.945 45.2922 44.0703 45.2404 44.1626 45.1481C44.2549 45.0557 44.3068 44.9305 44.3068 44.7999V37.9076C44.3068 37.7771 44.2549 37.6518 44.1626 37.5595C44.0703 37.4672 43.945 37.4153 43.8145 37.4153H36.9222Z" fill="#FF9054"/>
</g>
<defs>
<clipPath id="clip0_103_852">
<rect width="31.5077" height="31.5077" fill="white" transform="translate(15.7539 16.7385)"/>
</clipPath>
</defs>
</svg>
