<svg width="64" height="65" viewBox="0 0 64 65" fill="none" xmlns="http://www.w3.org/2000/svg">
<circle cx="32" cy="32.7925" r="32" fill="#FFE5E9"/>
<path d="M45.5586 21.6497H20.0401C19.4972 21.6497 19.0586 22.0883 19.0586 22.6311V42.2608C19.0586 42.8037 19.4972 43.2423 20.0401 43.2423H45.5586C46.1015 43.2423 46.5401 42.8037 46.5401 42.2608V22.6311C46.5401 22.0883 46.1015 21.6497 45.5586 21.6497ZM44.3317 28.0293H37.8294V23.858H44.3317V28.0293ZM44.3317 34.8997H37.8294V29.9923H44.3317V34.8997ZM29.7322 29.9923H35.8665V34.8997H29.7322V29.9923ZM35.8665 28.0293H29.7322V23.858H35.8665V28.0293ZM21.2669 29.9923H27.7692V34.8997H21.2669V29.9923ZM21.2669 23.858H27.7692V28.0293H21.2669V23.858ZM21.2669 36.8626H27.7692V41.0339H21.2669V36.8626ZM29.7322 36.8626H35.8665V41.0339H29.7322V36.8626ZM44.3317 41.0339H37.8294V36.8626H44.3317V41.0339Z" fill="#FF5F85"/>
</svg>
