<svg width="145" height="24" viewBox="0 0 145 24" fill="none" xmlns="http://www.w3.org/2000/svg">
<path d="M10.048 24V5.216H0.64V0.959999H23.68V5.216H14.304V24H10.048ZM29.9773 24V5.408C29.9773 4.59733 30.1799 3.86133 30.5853 3.2C30.9906 2.51733 31.5239 1.97333 32.1853 1.568C32.8679 1.16267 33.6146 0.959999 34.4253 0.959999H48.5373C49.3479 0.959999 50.0946 1.16267 50.7773 1.568C51.4599 1.97333 52.0039 2.51733 52.4093 3.2C52.8146 3.86133 53.0173 4.59733 53.0173 5.408V24H48.7613V16.256H34.2013V24H29.9773ZM34.2013 12.032H48.7613V5.6C48.7613 5.49333 48.7186 5.408 48.6333 5.344C48.5479 5.25867 48.4519 5.216 48.3453 5.216H34.5853C34.4786 5.216 34.3826 5.25867 34.2973 5.344C34.2333 5.408 34.2013 5.49333 34.2013 5.6V12.032ZM60.5033 24V0.959999H65.1433L79.2873 17.792V0.959999H83.5433V24H78.9033L64.7273 7.136V24H60.5033ZM95.4162 24C94.6056 24 93.8589 23.7973 93.1762 23.392C92.5149 22.9867 91.9816 22.4533 91.5762 21.792C91.1709 21.1093 90.9682 20.3627 90.9682 19.552V5.408C90.9682 4.59733 91.1709 3.86133 91.5762 3.2C91.9816 2.51733 92.5149 1.97333 93.1762 1.568C93.8589 1.16267 94.6056 0.959999 95.4162 0.959999H109.528C110.339 0.959999 111.086 1.16267 111.768 1.568C112.451 1.97333 112.995 2.51733 113.4 3.2C113.806 3.86133 114.008 4.59733 114.008 5.408V7.2H109.752V5.6C109.752 5.49333 109.71 5.408 109.624 5.344C109.539 5.25867 109.443 5.216 109.336 5.216H95.5762C95.4696 5.216 95.3736 5.25867 95.2882 5.344C95.2242 5.408 95.1922 5.49333 95.1922 5.6V19.36C95.1922 19.4667 95.2242 19.5627 95.2882 19.648C95.3736 19.712 95.4696 19.744 95.5762 19.744H109.336C109.443 19.744 109.539 19.712 109.624 19.648C109.71 19.5627 109.752 19.4667 109.752 19.36V15.2H104.536V10.944H114.008V19.552C114.008 20.3627 113.806 21.1093 113.4 21.792C112.995 22.4533 112.451 22.9867 111.768 23.392C111.086 23.7973 110.339 24 109.528 24H95.4162ZM125.755 24C124.944 24 124.197 23.7973 123.515 23.392C122.853 22.9867 122.32 22.4533 121.915 21.792C121.509 21.1093 121.307 20.3627 121.307 19.552V5.408C121.307 4.59733 121.509 3.86133 121.915 3.2C122.32 2.51733 122.853 1.97333 123.515 1.568C124.197 1.16267 124.944 0.959999 125.755 0.959999H139.899C140.709 0.959999 141.445 1.16267 142.107 1.568C142.789 1.97333 143.333 2.51733 143.739 3.2C144.144 3.86133 144.347 4.59733 144.347 5.408V19.552C144.347 20.3627 144.144 21.1093 143.739 21.792C143.333 22.4533 142.789 22.9867 142.107 23.392C141.445 23.7973 140.709 24 139.899 24H125.755ZM125.915 19.744H139.675C139.781 19.744 139.877 19.712 139.963 19.648C140.048 19.5627 140.091 19.4667 140.091 19.36V5.6C140.091 5.49333 140.048 5.408 139.963 5.344C139.877 5.25867 139.781 5.216 139.675 5.216H125.915C125.808 5.216 125.712 5.25867 125.627 5.344C125.563 5.408 125.531 5.49333 125.531 5.6V19.36C125.531 19.4667 125.563 19.5627 125.627 19.648C125.712 19.712 125.808 19.744 125.915 19.744Z" fill="#E8E8E8"/>
</svg>
