<svg width="149" height="24" viewBox="0 0 149 24" fill="none" xmlns="http://www.w3.org/2000/svg">
<path d="M5.24 24C4.42933 24 3.68267 23.7973 3 23.392C2.33867 22.9867 1.80533 22.4533 1.4 21.792C0.994667 21.1093 0.792 20.3627 0.792 19.552V5.408C0.792 4.59733 0.994667 3.86133 1.4 3.2C1.80533 2.51733 2.33867 1.97333 3 1.568C3.68267 1.16267 4.42933 0.959999 5.24 0.959999H23.768V5.216H6.136C5.79467 5.216 5.51733 5.312 5.304 5.504C5.112 5.696 5.016 5.97333 5.016 6.336V18.624C5.016 18.9653 5.112 19.2427 5.304 19.456C5.51733 19.648 5.79467 19.744 6.136 19.744H23.768V24H5.24ZM35.3285 24C34.5178 24 33.7712 23.7973 33.0885 23.392C32.4272 22.9867 31.8938 22.4533 31.4885 21.792C31.0832 21.1093 30.8805 20.3627 30.8805 19.552V5.408C30.8805 4.59733 31.0832 3.86133 31.4885 3.2C31.8938 2.51733 32.4272 1.97333 33.0885 1.568C33.7712 1.16267 34.5178 0.959999 35.3285 0.959999H49.4725C50.2832 0.959999 51.0192 1.16267 51.6805 1.568C52.3632 1.97333 52.9072 2.51733 53.3125 3.2C53.7178 3.86133 53.9205 4.59733 53.9205 5.408V19.552C53.9205 20.3627 53.7178 21.1093 53.3125 21.792C52.9072 22.4533 52.3632 22.9867 51.6805 23.392C51.0192 23.7973 50.2832 24 49.4725 24H35.3285ZM35.4885 19.744H49.2485C49.3552 19.744 49.4512 19.712 49.5365 19.648C49.6218 19.5627 49.6645 19.4667 49.6645 19.36V5.6C49.6645 5.49333 49.6218 5.408 49.5365 5.344C49.4512 5.25867 49.3552 5.216 49.2485 5.216H35.4885C35.3818 5.216 35.2858 5.25867 35.2005 5.344C35.1365 5.408 35.1045 5.49333 35.1045 5.6V19.36C35.1045 19.4667 35.1365 19.5627 35.2005 19.648C35.2858 19.712 35.3818 19.744 35.4885 19.744ZM61.2845 24V0.959999H65.9245L74.2765 10.912L82.5965 0.959999H87.2685V24H83.0125V7.104L74.2765 17.504L65.5085 7.136V24H61.2845ZM94.908 24V0.959999H112.572C113.383 0.959999 114.119 1.16267 114.78 1.568C115.463 1.97333 116.007 2.51733 116.412 3.2C116.817 3.86133 117.02 4.59733 117.02 5.408V9.92C117.02 10.1973 116.999 10.464 116.956 10.72C116.913 10.976 116.839 11.2213 116.732 11.456C117.095 11.9467 117.383 12.4587 117.596 12.992C117.831 13.5253 117.948 14.0587 117.948 14.592V19.552C117.948 20.3627 117.745 21.1093 117.34 21.792C116.935 22.4533 116.391 22.9867 115.708 23.392C115.025 23.7973 114.279 24 113.468 24H94.908ZM99.516 19.744H113.276C113.383 19.744 113.479 19.712 113.564 19.648C113.649 19.5627 113.692 19.4667 113.692 19.36V14.784C113.692 14.6773 113.649 14.592 113.564 14.528C113.479 14.4427 113.383 14.4 113.276 14.4H99.516C99.4093 14.4 99.3133 14.4427 99.228 14.528C99.164 14.592 99.132 14.6773 99.132 14.784V19.36C99.132 19.4667 99.164 19.5627 99.228 19.648C99.3133 19.712 99.4093 19.744 99.516 19.744ZM99.516 10.144H112.38C112.487 10.144 112.572 10.112 112.636 10.048C112.7 9.96267 112.732 9.86667 112.732 9.76V5.6C112.732 5.49333 112.7 5.408 112.636 5.344C112.572 5.25867 112.487 5.216 112.38 5.216H99.516C99.4093 5.216 99.3133 5.25867 99.228 5.344C99.164 5.408 99.132 5.49333 99.132 5.6V9.76C99.132 9.86667 99.164 9.96267 99.228 10.048C99.3133 10.112 99.4093 10.144 99.516 10.144ZM129.661 24C128.85 24 128.104 23.7973 127.421 23.392C126.76 22.9867 126.226 22.4533 125.821 21.792C125.416 21.1093 125.213 20.3627 125.213 19.552V5.408C125.213 4.59733 125.416 3.86133 125.821 3.2C126.226 2.51733 126.76 1.97333 127.421 1.568C128.104 1.16267 128.85 0.959999 129.661 0.959999H143.805C144.616 0.959999 145.352 1.16267 146.013 1.568C146.696 1.97333 147.24 2.51733 147.645 3.2C148.05 3.86133 148.253 4.59733 148.253 5.408V19.552C148.253 20.3627 148.05 21.1093 147.645 21.792C147.24 22.4533 146.696 22.9867 146.013 23.392C145.352 23.7973 144.616 24 143.805 24H129.661ZM129.821 19.744H143.581C143.688 19.744 143.784 19.712 143.869 19.648C143.954 19.5627 143.997 19.4667 143.997 19.36V5.6C143.997 5.49333 143.954 5.408 143.869 5.344C143.784 5.25867 143.688 5.216 143.581 5.216H129.821C129.714 5.216 129.618 5.25867 129.533 5.344C129.469 5.408 129.437 5.49333 129.437 5.6V19.36C129.437 19.4667 129.469 19.5627 129.533 19.648C129.618 19.712 129.714 19.744 129.821 19.744Z" fill="white"/>
</svg>
