<svg width="64" height="64" viewBox="0 0 64 64" fill="none" xmlns="http://www.w3.org/2000/svg">
<circle cx="32" cy="32" r="32" fill="#F4E6FF"/>
<path d="M42.4995 39.6242C41.9279 38.2702 41.0983 37.0403 40.0571 36.003C39.019 34.9628 37.7893 34.1333 36.4359 33.5606C36.4237 33.5545 36.4116 33.5515 36.3995 33.5455C38.2874 32.1818 39.5146 29.9606 39.5146 27.4545C39.5146 23.303 36.151 19.9394 31.9995 19.9394C27.848 19.9394 24.4843 23.303 24.4843 27.4545C24.4843 29.9606 25.7116 32.1818 27.5995 33.5485C27.5874 33.5545 27.5752 33.5576 27.5631 33.5636C26.2055 34.1364 24.9874 34.9576 23.9419 36.0061C22.9016 37.0441 22.0722 38.2738 21.4995 39.6273C20.9368 40.9523 20.6334 42.3729 20.6055 43.8121C20.6047 43.8445 20.6104 43.8766 20.6222 43.9068C20.634 43.9369 20.6518 43.9643 20.6744 43.9875C20.697 44.0106 20.724 44.029 20.7538 44.0416C20.7836 44.0541 20.8156 44.0606 20.848 44.0606H22.6662C22.7995 44.0606 22.9055 43.9545 22.9086 43.8242C22.9692 41.4848 23.9086 39.2939 25.5692 37.6333C27.2874 35.9151 29.5692 34.9697 31.9995 34.9697C34.4298 34.9697 36.7116 35.9151 38.4298 37.6333C40.0904 39.2939 41.0298 41.4848 41.0904 43.8242C41.0934 43.9576 41.1995 44.0606 41.3328 44.0606H43.151C43.1834 44.0606 43.2154 44.0541 43.2452 44.0416C43.275 44.029 43.302 44.0106 43.3246 43.9875C43.3472 43.9643 43.3649 43.9369 43.3767 43.9068C43.3886 43.8766 43.3942 43.8445 43.3934 43.8121C43.3631 42.3636 43.0631 40.9545 42.4995 39.6242ZM31.9995 32.6667C30.6086 32.6667 29.2995 32.1242 28.3146 31.1394C27.3298 30.1545 26.7874 28.8455 26.7874 27.4545C26.7874 26.0636 27.3298 24.7545 28.3146 23.7697C29.2995 22.7848 30.6086 22.2424 31.9995 22.2424C33.3904 22.2424 34.6995 22.7848 35.6843 23.7697C36.6692 24.7545 37.2116 26.0636 37.2116 27.4545C37.2116 28.8455 36.6692 30.1545 35.6843 31.1394C34.6995 32.1242 33.3904 32.6667 31.9995 32.6667Z" fill="#B04DFF"/>
</svg>
