<svg width="64" height="64" viewBox="0 0 64 64" fill="none" xmlns="http://www.w3.org/2000/svg">
<circle cx="32" cy="32" r="32" fill="#FFF1D7"/>
<g clip-path="url(#clip0_103_834)">
<path d="M18.5719 18.5701C19.6532 18.5701 20.5267 19.4437 20.5267 20.5249V41.0498C20.5267 41.5873 20.9665 42.0271 21.5041 42.0271H45.9385C47.0197 42.0271 47.8932 42.9007 47.8932 43.9819C47.8932 45.0631 47.0197 45.9366 45.9385 45.9366H21.5041C18.8041 45.9366 16.6172 43.7498 16.6172 41.0498V20.5249C16.6172 19.4437 17.4907 18.5701 18.5719 18.5701ZM24.4362 24.4344C24.4362 23.3532 25.3097 22.4796 26.3909 22.4796H32.2552C33.3364 22.4796 34.2099 23.3532 34.2099 24.4344C34.2099 25.5156 33.3364 26.3891 32.2552 26.3891H26.3909C25.3097 26.3891 24.4362 25.5156 24.4362 24.4344ZM30.3004 28.3439H38.1194C39.2007 28.3439 40.0742 29.2174 40.0742 30.2986C40.0742 31.3799 39.2007 32.2534 38.1194 32.2534H30.3004C29.2192 32.2534 28.3457 31.3799 28.3457 30.2986C28.3457 29.2174 29.2192 28.3439 30.3004 28.3439ZM40.0742 34.2081H43.9837C45.0649 34.2081 45.9385 35.0817 45.9385 36.1629C45.9385 37.2441 45.0649 38.1176 43.9837 38.1176H40.0742C38.993 38.1176 38.1194 37.2441 38.1194 36.1629C38.1194 35.0817 38.993 34.2081 40.0742 34.2081Z" fill="#FFC147"/>
</g>
<defs>
<clipPath id="clip0_103_834">
<rect width="31.276" height="31.276" fill="white" transform="translate(16.6172 16.6154)"/>
</clipPath>
</defs>
</svg>
