<svg width="273" height="59" viewBox="0 0 273 59" fill="none" xmlns="http://www.w3.org/2000/svg">
<g clip-path="url(#clip0_455_1109)">
<path d="M96.2494 34.1106L94.6257 38.7056H94.4904C94.2198 37.6695 93.7237 36.0927 92.9119 34.2007L84.2076 12.3519H75.6836V47.1748H81.3211V25.6864C81.3211 24.3349 81.3211 22.8033 81.276 20.9112C81.2309 19.9652 81.1407 19.2444 81.0956 18.7038H81.2309C81.5015 20.0553 81.8172 21.0463 82.0427 21.677L92.506 47.0847H96.4749L106.848 21.4518C107.073 20.8661 107.299 19.6949 107.524 18.7038H107.66C107.524 21.2716 107.434 23.5691 107.389 24.9656V47.0397H113.388V12.2618H105.179L96.2494 34.1106ZM119.07 22.0825H124.933V47.0397H119.07V22.0825ZM122.047 11.541C121.055 11.541 120.243 11.9014 119.566 12.5321C118.89 13.1627 118.529 13.9736 118.529 14.9647C118.529 15.9107 118.89 16.7216 119.566 17.3523C120.243 17.983 121.055 18.2983 122.047 18.2983C123.039 18.2983 123.896 17.938 124.527 17.3523C125.204 16.7216 125.565 15.9107 125.565 14.9647C125.565 14.0187 125.204 13.2078 124.527 12.5321C123.941 11.9014 123.084 11.541 122.047 11.541ZM145.724 21.8572C144.642 21.632 143.515 21.4968 142.432 21.4968C139.771 21.4968 137.336 22.0825 135.306 23.2537C133.277 24.425 131.653 26.0468 130.616 28.074C129.533 30.1463 128.992 32.5339 128.992 35.2819C128.992 37.6695 129.533 39.7868 130.571 41.7239C131.608 43.6159 133.051 45.1476 134.991 46.1837C136.84 47.2199 139.005 47.7605 141.44 47.7605C144.236 47.7605 146.626 47.1748 148.521 46.0936L148.566 46.0486V40.6427L148.34 40.8229C147.483 41.4536 146.491 41.9942 145.499 42.3095C144.462 42.6699 143.515 42.8501 142.703 42.8501C140.358 42.8501 138.508 42.1744 137.201 40.6877C135.847 39.2462 135.171 37.264 135.171 34.7863C135.171 32.2185 135.847 30.1913 137.246 28.7047C138.644 27.2181 140.493 26.4522 142.748 26.4522C144.642 26.4522 146.581 27.0829 148.34 28.3443L148.566 28.5245V22.8033L148.521 22.7582C147.754 22.4429 146.897 22.0825 145.724 21.8572ZM165.073 21.677C163.629 21.677 162.276 22.1275 161.104 23.0736C160.111 23.8844 159.435 25.0557 158.849 26.4522H158.804V22.0825H152.941V47.0397H158.804V34.2908C158.804 32.1284 159.255 30.3265 160.247 29.02C161.239 27.6686 162.502 26.9928 164.035 26.9928C164.576 26.9928 165.118 27.128 165.794 27.2181C166.426 27.3983 166.877 27.5785 167.192 27.8037L167.418 27.9839V22.1275L167.282 22.0825C166.877 21.8122 166.065 21.677 165.073 21.677ZM181.038 21.5419C176.934 21.5419 173.642 22.7582 171.341 25.1458C168.996 27.5334 167.869 30.822 167.869 34.9665C167.869 38.8407 169.041 41.9942 171.296 44.2917C173.551 46.5441 176.618 47.7154 180.452 47.7154C184.466 47.7154 187.668 46.4991 189.968 44.0664C192.313 41.6338 193.441 38.3902 193.441 34.3809C193.441 30.4166 192.358 27.2631 190.148 24.9656C188.029 22.6681 184.917 21.5419 181.038 21.5419ZM185.729 40.7328C184.646 42.1293 182.932 42.8051 180.813 42.8051C178.693 42.8051 176.979 42.1293 175.761 40.6427C174.544 39.2462 173.957 37.219 173.957 34.6512C173.957 31.9933 174.589 29.9661 175.761 28.5245C176.979 27.0829 178.648 26.3621 180.767 26.3621C182.842 26.3621 184.466 27.0379 185.638 28.4344C186.811 29.8309 187.442 31.8581 187.442 34.516C187.352 37.219 186.856 39.3363 185.729 40.7328ZM206.52 32.4438C204.671 31.6779 203.498 31.0923 202.957 30.5968C202.506 30.1463 202.28 29.5156 202.28 28.7047C202.28 28.0289 202.551 27.3532 203.227 26.9027C203.904 26.4522 204.671 26.227 205.798 26.227C206.79 26.227 207.828 26.4072 208.82 26.6775C209.812 26.9478 210.714 27.3532 211.436 27.8938L211.661 28.074V22.578L211.526 22.533C210.849 22.2627 209.947 21.9924 208.865 21.7671C207.783 21.5869 206.79 21.4968 205.979 21.4968C203.182 21.4968 200.882 22.1726 199.078 23.6592C197.274 25.0557 196.417 26.9478 196.417 29.1552C196.417 30.3265 196.598 31.3626 197.004 32.2185C197.41 33.0744 197.996 33.8853 198.808 34.5611C199.619 35.1918 200.792 35.9125 202.416 36.5883C203.769 37.1739 204.806 37.6244 205.437 37.9848C206.069 38.3452 206.475 38.7506 206.79 39.066C207.016 39.4264 207.151 39.8769 207.151 40.4625C207.151 42.1293 205.888 42.9402 203.318 42.9402C202.325 42.9402 201.288 42.76 200.07 42.3546C198.853 41.9491 197.725 41.3635 196.778 40.6877L196.553 40.5076V46.2288L196.688 46.2738C197.545 46.6793 198.582 46.9496 199.845 47.2649C201.108 47.4902 202.235 47.6704 203.227 47.6704C206.249 47.6704 208.73 46.9946 210.489 45.508C212.293 44.0664 213.24 42.2194 213.24 39.8318C213.24 38.165 212.789 36.6784 211.797 35.5522C210.489 34.471 208.865 33.3447 206.52 32.4438ZM228.709 21.5419C224.605 21.5419 221.313 22.7582 219.013 25.1458C216.712 27.5334 215.54 30.822 215.54 34.9665C215.54 38.8407 216.712 41.9942 218.967 44.2917C221.222 46.5441 224.289 47.7154 228.123 47.7154C232.137 47.7154 235.339 46.4991 237.639 44.0664C239.984 41.6338 241.112 38.3902 241.112 34.3809C241.112 30.4166 240.029 27.2631 237.819 24.9656C235.7 22.6681 232.588 21.5419 228.709 21.5419ZM233.355 40.7328C232.272 42.1293 230.558 42.8051 228.439 42.8051C226.274 42.8051 224.605 42.1293 223.387 40.6427C222.17 39.2462 221.583 37.219 221.583 34.6512C221.583 31.9933 222.215 29.9661 223.387 28.5245C224.605 27.0829 226.274 26.3621 228.393 26.3621C230.423 26.3621 232.092 27.0379 233.264 28.4344C234.437 29.8309 235.068 31.8581 235.068 34.516C235.068 37.219 234.482 39.3363 233.355 40.7328ZM272.457 26.9027V22.0825H266.548V14.6944L266.368 14.7395L260.776 16.4063L260.64 16.4513V22.0825H251.801V18.929C251.801 17.4875 252.161 16.3612 252.793 15.6405C253.424 14.9197 254.371 14.5593 255.544 14.5593C256.356 14.5593 257.213 14.7395 258.16 15.1449L258.385 15.2801V10.1895L258.25 10.1445C257.438 9.87417 256.356 9.69397 254.958 9.69397C253.199 9.69397 251.665 10.0994 250.267 10.7751C248.869 11.541 247.832 12.5771 247.065 13.9736C246.298 15.3251 245.892 16.8568 245.892 18.6137V22.0825H241.788V26.8577H245.892V47.0397H251.801V26.9027H260.64V39.7417C260.64 45.0125 263.121 47.6704 268.082 47.6704C268.894 47.6704 269.751 47.5352 270.562 47.4001C271.419 47.2199 272.051 46.9946 272.411 46.8144L272.457 46.7694V41.9491L272.231 42.1293C271.87 42.3546 271.555 42.5348 271.013 42.6699C270.562 42.8051 270.156 42.8501 269.841 42.8501C268.668 42.8501 267.856 42.5798 267.27 41.9041C266.729 41.2734 266.458 40.2373 266.458 38.7056V26.9027H272.457Z" fill="#737373"/>
<path d="M0.09375 0.63916H27.7403V28.2543H0.09375V0.63916Z" fill="#F25022"/>
<path d="M30.625 0.63916H58.2715V28.2543H30.625V0.63916Z" fill="#7FBA00"/>
<path d="M0.09375 31.1375H27.7403V58.7525H0.09375V31.1375Z" fill="#00A4EF"/>
<path d="M30.625 31.1375H58.2715V58.7525H30.625V31.1375Z" fill="#FFB900"/>
</g>
<defs>
<clipPath id="clip0_455_1109">
<rect width="272.406" height="58.1133" fill="white" transform="translate(0.09375 0.63916)"/>
</clipPath>
</defs>
</svg>
